<svg version="1.1" xmlns="http://www.w3.org/2000/svg" x="0" y="0" viewBox="0 0 68.2 70.2" style="enable-background:new 0 0 68.2 70.2" xml:space="preserve"><style></style><path class="st0" d="M.1 70.1h68V55.2H.1v14.9zm58-5.6c0-.5 0-.8.1-1.1.1-.2.2-.5.4-.6.2-.2.6-.3 1.1-.4-.7 0-1.1-.2-1.3-.5-.2-.3-.3-.8-.3-1.5 0-.6.1-1.1.3-1.5.2-.4.4-.6.8-.8.3-.2.7-.2 1.2-.3h4.1v9.4h-2.9V63c-.4 0-.6.1-.7.2-.1.1-.2.3-.2.7v3.4H58v-2.8zm-7.6-6.7h2.4v4.3l1.6-4.3h2.4v9.4h-2.4V63L53 67.3h-2.5v-9.5zm-9.9 0h3.7c.1.6.2 1.2.3 2l.4 2.4.7-4.4h3.7v9.4h-2.5v-6.4l-1 6.4h-1.8l-1-6.2v6.2h-2.5v-9.4zm-5.8 0h4.8v1.9h-1.9v1.8h1.8v1.8h-1.8v2.1h2.1v1.9h-5v-9.5zm-9.5 7.5h.6c.3-.8.6-1.8.8-3 .2-1.3.3-2.6.3-4.1v-.3h6.4v7.4h.6v3.6h-2v-1.6h-4.6v1.6h-2v-3.6zm-14.2-7.5H14v4c.5 0 .8-.3.8-.8l.1-1.8c0-.7.2-1.1.5-1.4H18c-.3.2-.4.7-.4 1.4v1.6c0 1-.6 1.5-1.9 1.7 1.3.1 1.9.7 1.9 1.7v1.5c0 .7.1 1.1.3 1.4l1.5-9.3h4.1l1.6 9.4h-2.9l-.2-1.7h-1l-.2 1.7H18l-.1-.1v.1h-2.6c-.3-.2-.5-.7-.5-1.4V64c0-.2-.1-.4-.2-.6-.2-.1-.4-.2-.6-.2v4h-2.9v-9.4zm-6.2 0H9l1.6 9.4H7.7l-.2-1.7h-1l-.2 1.7h-3l1.6-9.4zM40.1 53.9v-5h1.2v-1.3h-4.4v1.3h1.2v5zM46.4 50.9V50c0-.6-.1-1.1-.2-1.4-.2-.3-.4-.6-.8-.8-.4-.2-.9-.3-1.4-.3-.5 0-.9.1-1.3.3-.4.2-.6.4-.8.7-.2.3-.2.7-.2 1.3v1.8c0 .5 0 .8.1 1.1.1.2.2.5.4.7.2.2.4.4.8.5.3.1.7.2 1.2.2s.8-.1 1.1-.2c.3-.1.5-.3.7-.5.2-.2.3-.5.4-.7.1-.2.1-.5.1-.9v-.5h-2v.8c0 .3 0 .5-.1.6-.1.1-.2.2-.3.2-.1 0-.2 0-.3-.1 0-.1-.1-.3-.1-.5v-1.4h2.7zm-2.6-1.5c0-.4 0-.6.1-.6 0-.1.1-.1.3-.1.1 0 .2 0 .2.1s.1.3.1.6v.5h-.6v-.5z"/><path class="st0" d="M30.4 59.7h-.9v.1c0 1.8-.2 3.6-.7 5.5h1.5v-5.6zM68.1 53.9v-6.3h-1.5c-1.3 0-2.1.1-2.5.4-.4.3-.6.7-.6 1.3 0 .6.1 1 .2 1.2.1.2.5.3 1 .4-.4.1-.7.2-.8.3-.2.1-.3.2-.3.4s-.1.4-.1.8v1.5h1.9v-1.7c0-.3 0-.5.1-.6.1-.1.3-.2.6-.2v2.5h2zm-2.6-3.7c-.1-.1-.1-.3-.1-.6v-.1c0-.3 0-.5.1-.6.1-.1.2-.1.4-.1h.1v1.5c-.2 0-.4 0-.5-.1M57.4 39.3l.1-26.1 10.5-.1.1-6.2h-19V44.8h8.3zM47.1 47.6v7.1h2.1v-1.4c.2.2.4.4.6.5.2.1.5.2.7.2.3 0 .6-.1.8-.2.2-.1.4-.3.4-.6.1-.2.1-.6.1-1.2v-2.6c0-.5 0-.8-.1-1.1-.1-.2-.2-.4-.4-.6-.2-.2-.5-.2-.8-.2-.3 0-.5.1-.7.2-.2.1-.4.3-.6.5v-.6h-2.1zm2.1 1.2c0-.1.1-.1.3-.1.1 0 .2 0 .3.1v4c0 .1-.1.1-.3.1-.1 0-.2 0-.3-.1 0-.1-.1-.3-.1-.7v-2.6c.1-.4.1-.7.1-.7M62.7 53.9v-3.1c0-1 0-1.7-.1-2.1-.1-.3-.3-.6-.6-.8-.4-.2-.9-.3-1.6-.3-.6 0-1.1.1-1.4.3-.4.2-.6.4-.7.7-.1.3-.2.6-.2 1.1v.3H60v-.7c0-.4 0-.6.1-.7 0-.1.1-.1.3-.1.1 0 .2.1.3.2.1.1.1.3.1.6s0 .4-.1.5c0 .1-.4.2-1.1.5-.6.2-1 .4-1.2.6-.2.2-.2.5-.2 1v.5c0 .6.2 1 .5 1.2.3.2.6.3 1 .3.3 0 .5-.1.7-.2.2-.1.4-.3.5-.5v.6h1.8zm-2-1.7c0 .3 0 .5-.1.6 0 .1-.1.1-.3.1-.1 0-.2 0-.3-.1 0-.1-.1-.3-.1-.6s0-.5.1-.7c.1-.1.2-.3.6-.6v1.3zM57.4 53.9v-6.3h-2v2.3h-.8v-2.3h-2v6.3h2v-2.3h.8v2.3zM34.4 44.8l.5-3.3.7-4.6h3.8l.5 4.4.3 3.4h7l-.5-3.9L43.3 13h-9.6l-4.6 28.4-.5 3.3h5.8zm3.3-26.6.2.1 1 13.8h-2.5l1.3-13.9zM17.3 53.9v-6.3h-2.6l-.6 3.5-.7-3.5h-2.5v6.3h1.7v-4.3l.9 4.3h1.1l.9-4.3v4.3zM8.9 47.7c-.3-.1-.7-.2-1.2-.2-.6 0-1 .1-1.4.3-.3.2-.5.5-.7.8-.1.3-.2.8-.2 1.4v1.6c0 .5 0 .9.1 1.2.1.3.2.5.4.7.2.2.4.3.7.4.4 0 .8.1 1.2.1.4 0 .8-.1 1.1-.2.3-.1.6-.3.8-.5.2-.2.3-.5.4-.7.1-.3.1-.7.1-1.2v-1.5c0-.4 0-.8-.1-1-.1-.2-.2-.4-.4-.6-.2-.3-.4-.5-.8-.6m-.8 4.5c0 .3 0 .4-.1.5 0 .1-.1.1-.2.1s-.2 0-.2-.1-.1-.3-.1-.6v-2.8c0-.3 0-.5.1-.6 0-.1.1-.1.2-.1s.2 0 .2.1.1.3.1.6v2.9zM3 53.9h2c-.2-.2-.2-.5-.2-.9v-1.1c0-.5-.4-.9-1.1-1.1-.3-.1-.6-.1-.7-.2.3 0 .5-.1.7-.1.3-.1.5-.2.6-.3.3-.2.4-.5.4-.8v-.9c0-.4.1-.7.2-.9H3c-.2.1-.2.3-.2.7v1.1c0 .4-.2.6-.7.6v-2.4h-2v6.3h2v-2.7c.4 0 .7.2.7.6v1.3c0 .3.1.6.2.8M21.6 59.9c-.3 1.8-.5 3.1-.6 4h1c-.1-1.1-.2-2.4-.4-4M61.6 61.5v-2.1h-.1c-.2 0-.4 0-.5.1-.1.1-.2.3-.2.6v.5c0 .3 0 .6.2.7 0 .2.2.2.6.2M26.5 41.4V18.7H20v21.1h-3.4V22.7h-6.5v17.1H6.6V26.7H.1v18.1h26.4zM25.7 49.7v-2.1h-2.1v6.3H26c.7 0 1.2 0 1.5-.1.3-.1.5-.2.7-.5.1-.2.2-.7.2-1.2v-.6c0-.5-.1-.9-.2-1.2-.2-.2-.4-.4-.7-.5-.3-.1-.8-.1-1.5-.1h-.3zm.7 1.9v.3c0 .3 0 .5-.1.6-.1.1-.3.1-.6.1v-1.7c.3 0 .5.1.6.1 0 .1.1.3.1.6M22.9 53.9v-6.3H18v6.3h2.1v-5h.7v5zM31.8 52.5c0 .2.1.4.2.6.1.2.3.4.5.5.2.1.4.2.6.2h.7c.6 0 1.1 0 1.4-.1.3-.1.6-.2.8-.4.2-.2.4-.4.4-.7.1-.3.1-.7.1-1.3v-1.5c0-.4 0-.7-.1-.9 0-.2-.2-.4-.4-.7-.2-.2-.5-.4-.8-.5-.3-.1-.7-.2-1.2-.2-.4 0-.8.1-1.1.2-.3.1-.6.3-.8.5-.2.2-.3.5-.4.7 0 .3-.1.6-.1 1v.1H31v-2.4h-2.1v6.3H31v-2.5h.6v.2c.2.3.2.6.2.9m2.1-3.2v-.6c0-.1.1-.2.3-.2.1 0 .2.1.3.2V52.5c0 .1 0 .2-.1.2-.1.1-.1.1-.2.1-.2 0-.3-.2-.3-.5v-3zM7.1 59.9c-.3 1.8-.5 3.1-.5 4h1c-.2-1.1-.4-2.4-.5-4"/><path class="st0" d="M1.5 26.3h1.1l.1-.2c.9.2 2 .5 2.8-.2-.1-.5-.8-.3-1.2-.6-.2-.1-.4-.2-.5-.4h-.2c.3-1.1.9-2.1 1.4-3 1.5-1.7 1.5-4.1 1.8-6.4.1-.1.1-.1.2-.1h.2c.3 0 .6 0 .6-.3 1.4.1 2.5.9 3.8 1.1 0 .1-.1.3-.2.4 0 .4-.1.7-.1 1v.3c-.1 1.7-.1 2.7.2 4.4h1l.1-.2c.9 0 2 .1 2.8-.5-.1-.5-.9-.2-1.3-.4-.2-.1-.5-.2-.6-.5 0-1.8.1-3.6.5-5.3-1.3-1.8-3.2-2.3-4.8-3.2.1-.2 0-.1.1-.3-.4 0-.7-.4-1.1-.3-.1-.4-.1-1 0-1.4.1.1.3.2.4.3.9.3 1.8.5 2.7.9l.3-.2c.1 0 .3.2.3.3h.2c.1-.1.1-.1.1-.2.2-.2.4-.6.3-1-.1-.2-.2-.2-.4-.1h-.3V10L9 8.8c-.1-.6-.4-1.1-.6-1.6 0-1.2-1.1-2-1-3.2.2-.2.3-.2.5-.1h.3c.1-.1.2-.2.2-.4.1 0 .1-.2.2-.2 0-.3 0-.6.3-.6-.1-.3-.3-.5-.3-.8.2-.4 0-.9 0-1.4C8.1.4 7.7.1 7.2.1c-.2 0-.4.1-.6.2-.4.4-.6.9-.6 1.3 0 .8.1.9.1 1.4-.1.1-.1.5-.3.3-.4.4-.7.9-1.1 1.3-1.1.9-2.6 1.8-2.9 3.4.1 1.2 0 2.4 0 3.6H2.1V11.9h.1c.2.4 0 .9.1 1.3.1.1.1.4.3.4v-.2l.2.3c.1.1.1-.1.2-.1s0 .2 0 .2c0 .2.1.3.2.2l.1-1c.1.3.1.7.1 1h.1c.2-.1.1-.4.1-.6 0-.6.1-1.1-.2-1.7.1-.1.1-.1.1-.3.1 0 .1-.1.1-.1.2-1 .2-2.2.3-3.3l.4-.3c.3 1.6 0 3.1-.3 4.7 0 .3.1.6 0 .9v.6-.3c0 .6-.2 1.3.2 1.6-.1 1.5-.1 3-.4 4.4-.9 2.2-2.4 4.3-2.3 6.7"/></svg>